<?xml version="1.0" encoding="UTF-8"?> <!-- Generator: Adobe Illustrator 24.1.2, SVG Export Plug-In . SVG Version: 6.00 Build 0) --> <svg xmlns="http://www.w3.org/2000/svg" xmlns:xlink="http://www.w3.org/1999/xlink" version="1.1" id="Layer_1" x="0px" y="0px" viewBox="0 0 271.93 64.97" style="enable-background:new 0 0 271.93 64.97;" xml:space="preserve"> <style type="text/css"> .st0{fill:#636569;} .st1{fill:#E1251B;} .st2{fill:#B2292E;} </style> <g> <path class="st0" d="M71.2,20.75h18.29v4.72h-13v5.02h11.46v4.72H76.48v9.13H71.2V20.75z M98.77,20.58h4.87l10.29,23.75h-5.52 l-2.2-5.29H96.06l-2.2,5.29h-5.39L98.77,20.58z M104.32,34.45l-3.19-7.65l-3.19,7.65H104.32z M116.34,20.75h4.87l11.25,14.52V20.75 h5.21v23.58h-4.49l-11.63-14.99v14.99h-5.21V20.75z M141.4,40.89l3.12-3.67c2.16,1.75,4.42,2.86,7.17,2.86 c2.16,0,3.47-0.84,3.47-2.22v-0.07c0-1.31-0.82-1.99-4.84-3c-4.84-1.21-7.96-2.53-7.96-7.21v-0.07c0-4.28,3.5-7.11,8.41-7.11 c3.5,0,6.48,1.08,8.92,3l-2.75,3.91c-2.13-1.45-4.22-2.32-6.24-2.32c-2.02,0-3.09,0.91-3.09,2.05v0.07c0,1.55,1.03,2.05,5.18,3.1 c4.87,1.25,7.62,2.96,7.62,7.07v0.07c0,4.68-3.64,7.31-8.82,7.31C147.96,44.66,144.29,43.41,141.4,40.89z M164.61,20.75h5.28v9.33 h9.74v-9.33h5.28v23.58h-5.28v-9.46h-9.74v9.46h-5.28V20.75z M198.06,20.58h4.87l10.29,23.75h-5.52l-2.2-5.29h-10.15l-2.2,5.29 h-5.39L198.06,20.58z M203.62,34.45l-3.19-7.65l-3.19,7.65H203.62z M210.81,20.75h5.66l4.98,15.97l5.39-16.03h4.53l5.39,16.03 l4.97-15.97h5.52l-8.2,23.75h-4.6l-5.42-15.43l-5.42,15.43h-4.6L210.81,20.75z M250.29,20.75h18.11v4.61h-12.87v4.78h11.32v4.61 h-11.32v4.95h13.04v4.61h-18.29V20.75z"></path> <path class="st1" d="M27.57,18.41l-7.03-6.9l0,0c-0.31-0.28-0.5-0.68-0.5-1.1c0-0.01,0-7.55,0-7.55c0-0.11,0.09-0.23,0.22-0.26 c0.07-0.02,0.18-0.02,0.29,0.08l11.5,11.32L27.57,18.41z M32.05,22.86l-4.48-4.45l-3.29,3.23l0,8.59c0.31,0,0.49-0.22,0.51-0.24 L32.05,22.86z M44.07,2.87c0-0.19-0.17-0.28-0.29-0.28c-0.07,0-0.15,0.03-0.22,0.1l-11.5,11.32l0,8.85L43.4,11.73l0.02-0.02 c0.38-0.31,0.65-0.78,0.65-1.2C44.07,10.5,44.07,2.87,44.07,2.87z M13.26,32.6L1.72,43.89c-0.1,0.1-0.1,0.21-0.08,0.28 c0.03,0.13,0.15,0.21,0.26,0.22c0,0,7.67,0,7.69,0c0.43,0,0.83-0.18,1.12-0.49l0,0l7.03-6.9L13.26,32.6z M22.27,32.6L17.74,37 l3.29,3.23l8.75,0c0-0.3-0.23-0.48-0.25-0.5L22.27,32.6z M1.91,20.8c-0.2,0-0.29,0.16-0.29,0.28c0,0.07,0.03,0.14,0.1,0.22 L13.26,32.6l9.02,0L10.94,21.46l-0.02-0.02c-0.32-0.37-0.79-0.64-1.22-0.64C9.68,20.8,1.91,20.8,1.91,20.8z M32.15,51.14 l11.5,11.32c0.11,0.1,0.22,0.1,0.28,0.08c0.13-0.03,0.22-0.15,0.22-0.26c0,0,0-7.53,0-7.54c0-0.42-0.18-0.82-0.5-1.1l0,0l-7.03-6.9 L32.15,51.14z M32.15,42.29l4.48,4.45l3.29-3.23l0-8.59c-0.31,0-0.49,0.22-0.51,0.24L32.15,42.29z M20.13,62.28 c0,0.19,0.17,0.28,0.29,0.28c0.07,0,0.15-0.03,0.22-0.1l11.5-11.32l0-8.85L20.81,53.42l-0.02,0.02c-0.38,0.31-0.65,0.78-0.65,1.2 C20.13,54.65,20.13,62.28,20.13,62.28z M51.09,32.55l11.53-11.29c0.1-0.1,0.1-0.21,0.08-0.28c-0.03-0.13-0.15-0.21-0.26-0.22 c0,0-7.67,0-7.69,0c-0.43,0-0.84,0.18-1.12,0.49l0,0l-7.03,6.9L51.09,32.55z M42.08,32.55l4.53-4.4l-3.29-3.23l-8.75,0 c0,0.3,0.23,0.48,0.25,0.5L42.08,32.55z M62.44,44.34c0.2,0,0.29-0.16,0.29-0.28c0-0.07-0.03-0.14-0.1-0.22L51.09,32.55l-9.01,0 l11.33,11.13l0.02,0.02c0.32,0.37,0.79,0.64,1.22,0.64C54.67,44.34,62.44,44.34,62.44,44.34z"></path> <path class="st2" d="M24.28,21.64l0,8.59c-0.24,0-0.39-0.13-0.44-0.17L12.71,19.14c0,0-0.53-0.48-0.47-1.18l-0.02-7.52 c0.01-0.11,0.1-0.22,0.22-0.25c0.08-0.02,0.19-0.01,0.27,0.08L24.28,21.64z M32.06,14.01 M32.06,14.01 M32.05,13.99 M32.05,14.01 l-4.48,4.4l4.48,4.45L32.05,14.01z M38.52,7.64 M32.05,13.99 M9.47,51.57c-0.09,0.08-0.1,0.19-0.08,0.27 c0.02,0.12,0.14,0.21,0.25,0.22l7.66-0.02c0.71,0.06,1.2-0.46,1.2-0.46L29.6,40.66c0.05-0.05,0.18-0.2,0.18-0.44l-8.75,0 L9.47,51.57z M13.26,32.59 M13.26,32.59 M13.24,32.6 M13.26,32.6l4.48,4.4l4.53-4.4L13.26,32.6z M6.77,26.25 M13.24,32.6 M51.48,54.86c0.09,0.09,0.19,0.1,0.27,0.08c0.12-0.02,0.21-0.14,0.22-0.25l-0.02-7.52c0.06-0.69-0.47-1.18-0.47-1.18L40.37,35.1 c-0.06-0.05-0.2-0.17-0.45-0.17l0,8.59L51.48,54.86z M32.15,51.14 M32.15,51.14 M32.15,51.16 M32.15,51.14l4.48-4.4l-4.48-4.45 L32.15,51.14z M25.68,57.51 M32.15,51.16 M54.88,13.57c0.09-0.08,0.1-0.19,0.08-0.27c-0.02-0.12-0.14-0.21-0.25-0.22l-7.66,0.02 c-0.71-0.06-1.2,0.46-1.2,0.46L34.75,24.48c-0.05,0.05-0.18,0.2-0.18,0.44l8.75,0L54.88,13.57z M51.09,32.55 M51.09,32.55 M51.11,32.55 M51.09,32.55l-4.48-4.4l-4.53,4.4L51.09,32.55z M57.58,38.9 M51.11,32.55"></path> </g> </svg> 