<?xml version="1.0" standalone="no"?>
<!DOCTYPE svg PUBLIC "-//W3C//DTD SVG 20010904//EN"
 "http://www.w3.org/TR/2001/REC-SVG-20010904/DTD/svg10.dtd">
<svg version="1.0" xmlns="http://www.w3.org/2000/svg"
 width="260.000000pt" height="260.000000pt" viewBox="0 0 260.000000 260.000000"
 preserveAspectRatio="xMidYMid meet">
<g transform="translate(0.000000,260.000000) scale(0.100000,-0.100000)"
fill="#000000" stroke="none">
<path d="M1525 2126 c-12 -8 -150 -361 -169 -431 -2 -5 -6 -17 -9 -25 -9 -23
-68 -184 -71 -195 -2 -5 -6 -17 -9 -25 -6 -13 -72 -195 -197 -540 -21 -58 -57
-157 -80 -220 -81 -222 -75 -201 -55 -217 20 -14 91 -18 120 -7 18 7 20 12 75
164 36 100 176 482 226 620 14 36 89 243 168 460 142 389 144 395 125 412 -23
20 -99 22 -124 4z"/>
<path d="M425 1558 c-198 -99 -372 -189 -388 -200 -24 -17 -27 -26 -27 -71 0
-62 4 -69 52 -95 78 -44 736 -372 746 -372 13 0 18 18 16 60 -1 19 -2 47 -3
63 -1 25 -16 34 -223 135 -123 60 -265 128 -316 152 -50 24 -92 48 -92 52 0 4
15 14 33 22 106 45 589 289 593 299 5 14 8 72 6 110 -1 18 -7 27 -19 27 -10 0
-180 -82 -378 -182z"/>
<path d="M1776 1724 c-8 -21 -8 -98 1 -119 5 -15 127 -77 521 -265 61 -29 112
-56 112 -59 0 -3 -42 -26 -93 -50 -116 -55 -531 -262 -536 -266 -2 -2 -6 -24
-8 -49 -6 -53 3 -96 20 -96 27 0 781 389 788 406 12 30 9 98 -4 115 -12 15
-767 399 -786 399 -5 0 -12 -7 -15 -16z"/>
</g>
</svg>
